#tb 0: 1/1000
0,          0,          0,        0,    58800, b2f2ac3e3833ae1b4dd075fe00210373
0,         33,         33,        0,    58800, c0cce05e56a07111fe62553fa3a87074
0,         66,         66,        0,    58800, 626aab3de03242073e03504e166b4697
0,        100,        100,        0,    58800, 574d2c810f0bbfac57f1f06c2b97445c
0,        133,        133,        0,    58800, 7d5bc5860bd1422d08396fe080452099
0,        166,        166,        0,    58800, 5d47bbfb0f5cdecfe8415ca2caddc206
0,        200,        200,        0,    58800, fbef6a0fa51029d0475975945ccf4b36
0,        233,        233,        0,    58800, c9179c153bcb2a8e9d17ed04e5e2c39c
0,        266,        266,        0,    58800, 107d796592cf2140d4d492beadba2d68
0,        300,        300,        0,    58800, eee46f9ee67fc1121bffb63aeb7c768f
